<svg xmlns="http://www.w3.org/2000/svg" xmlns:xlink="http://www.w3.org/1999/xlink" width="500" zoomAndPan="magnify" viewBox="0 0 375 374.999991" height="500" preserveAspectRatio="xMidYMid meet" version="1.0"><defs><clipPath id="b406198930"><path d="M 48 19 L 321 19 L 321 342 L 48 342 Z M 48 19 " clip-rule="nonzero"/></clipPath><clipPath id="fa80ffa67a"><path d="M 79.925781 3.441406 L 360.25 62.613281 L 295.035156 371.554688 L 14.710938 312.382812 Z M 79.925781 3.441406 " clip-rule="nonzero"/></clipPath><clipPath id="e4520d2a8f"><path d="M 360.28125 62.621094 L 79.960938 3.449219 L 14.746094 312.390625 L 295.070312 371.5625 Z M 360.28125 62.621094 " clip-rule="nonzero"/></clipPath><clipPath id="79aab1d83d"><path d="M 79 85 L 310 85 L 310 320 L 79 320 Z M 79 85 " clip-rule="nonzero"/></clipPath><clipPath id="84e8e36af5"><path d="M 79.925781 3.441406 L 360.25 62.613281 L 295.035156 371.554688 L 14.710938 312.382812 Z M 79.925781 3.441406 " clip-rule="nonzero"/></clipPath><clipPath id="3f60bc18a2"><path d="M 360.28125 62.621094 L 79.960938 3.449219 L 14.746094 312.390625 L 295.070312 371.5625 Z M 360.28125 62.621094 " clip-rule="nonzero"/></clipPath><clipPath id="353870a46f"><path d="M 171 123 L 188 123 L 188 137 L 171 137 Z M 171 123 " clip-rule="nonzero"/></clipPath><clipPath id="c6768513e5"><path d="M 79.925781 3.441406 L 360.25 62.613281 L 295.035156 371.554688 L 14.710938 312.382812 Z M 79.925781 3.441406 " clip-rule="nonzero"/></clipPath><clipPath id="783ebdc8a6"><path d="M 360.28125 62.621094 L 79.960938 3.449219 L 14.746094 312.390625 L 295.070312 371.5625 Z M 360.28125 62.621094 " clip-rule="nonzero"/></clipPath><clipPath id="0fbdbe6098"><path d="M 195 138 L 206 138 L 206 153 L 195 153 Z M 195 138 " clip-rule="nonzero"/></clipPath><clipPath id="e6ace99612"><path d="M 79.925781 3.441406 L 360.25 62.613281 L 295.035156 371.554688 L 14.710938 312.382812 Z M 79.925781 3.441406 " clip-rule="nonzero"/></clipPath><clipPath id="124972e0b4"><path d="M 360.28125 62.621094 L 79.960938 3.449219 L 14.746094 312.390625 L 295.070312 371.5625 Z M 360.28125 62.621094 " clip-rule="nonzero"/></clipPath><clipPath id="f88a261f33"><path d="M 200 108 L 215 108 L 215 121 L 200 121 Z M 200 108 " clip-rule="nonzero"/></clipPath><clipPath id="2a11b73bf1"><path d="M 79.925781 3.441406 L 360.25 62.613281 L 295.035156 371.554688 L 14.710938 312.382812 Z M 79.925781 3.441406 " clip-rule="nonzero"/></clipPath><clipPath id="4784768d69"><path d="M 360.28125 62.621094 L 79.960938 3.449219 L 14.746094 312.390625 L 295.070312 371.5625 Z M 360.28125 62.621094 " clip-rule="nonzero"/></clipPath><clipPath id="5e186c3d64"><path d="M 230 118 L 246 118 L 246 134 L 230 134 Z M 230 118 " clip-rule="nonzero"/></clipPath><clipPath id="876bff2362"><path d="M 79.925781 3.441406 L 360.25 62.613281 L 295.035156 371.554688 L 14.710938 312.382812 Z M 79.925781 3.441406 " clip-rule="nonzero"/></clipPath><clipPath id="40fd81ea67"><path d="M 360.28125 62.621094 L 79.960938 3.449219 L 14.746094 312.390625 L 295.070312 371.5625 Z M 360.28125 62.621094 " clip-rule="nonzero"/></clipPath><clipPath id="dde26236ef"><path d="M 221 142 L 239 142 L 239 159 L 221 159 Z M 221 142 " clip-rule="nonzero"/></clipPath><clipPath id="e45e895c62"><path d="M 79.925781 3.441406 L 360.25 62.613281 L 295.035156 371.554688 L 14.710938 312.382812 Z M 79.925781 3.441406 " clip-rule="nonzero"/></clipPath><clipPath id="95c5f007f4"><path d="M 360.28125 62.621094 L 79.960938 3.449219 L 14.746094 312.390625 L 295.070312 371.5625 Z M 360.28125 62.621094 " clip-rule="nonzero"/></clipPath><clipPath id="6c1ffae8a2"><path d="M 238 168 L 254 168 L 254 185 L 238 185 Z M 238 168 " clip-rule="nonzero"/></clipPath><clipPath id="353b08b370"><path d="M 79.925781 3.441406 L 360.25 62.613281 L 295.035156 371.554688 L 14.710938 312.382812 Z M 79.925781 3.441406 " clip-rule="nonzero"/></clipPath><clipPath id="f5b1d7d1fc"><path d="M 360.28125 62.621094 L 79.960938 3.449219 L 14.746094 312.390625 L 295.070312 371.5625 Z M 360.28125 62.621094 " clip-rule="nonzero"/></clipPath><clipPath id="7f41e27893"><path d="M 203 181 L 218 181 L 218 198 L 203 198 Z M 203 181 " clip-rule="nonzero"/></clipPath><clipPath id="43f000219f"><path d="M 79.925781 3.441406 L 360.25 62.613281 L 295.035156 371.554688 L 14.710938 312.382812 Z M 79.925781 3.441406 " clip-rule="nonzero"/></clipPath><clipPath id="e11f00d34a"><path d="M 360.28125 62.621094 L 79.960938 3.449219 L 14.746094 312.390625 L 295.070312 371.5625 Z M 360.28125 62.621094 " clip-rule="nonzero"/></clipPath><clipPath id="da310a38fd"><path d="M 148 154 L 164 154 L 164 170 L 148 170 Z M 148 154 " clip-rule="nonzero"/></clipPath><clipPath id="3db9ee4cd6"><path d="M 79.925781 3.441406 L 360.25 62.613281 L 295.035156 371.554688 L 14.710938 312.382812 Z M 79.925781 3.441406 " clip-rule="nonzero"/></clipPath><clipPath id="137808a3fd"><path d="M 360.28125 62.621094 L 79.960938 3.449219 L 14.746094 312.390625 L 295.070312 371.5625 Z M 360.28125 62.621094 " clip-rule="nonzero"/></clipPath><clipPath id="7e3e3bfb38"><path d="M 132 137 L 148 137 L 148 151 L 132 151 Z M 132 137 " clip-rule="nonzero"/></clipPath><clipPath id="c7b2ce9ed0"><path d="M 79.925781 3.441406 L 360.25 62.613281 L 295.035156 371.554688 L 14.710938 312.382812 Z M 79.925781 3.441406 " clip-rule="nonzero"/></clipPath><clipPath id="f263b487e3"><path d="M 360.28125 62.621094 L 79.960938 3.449219 L 14.746094 312.390625 L 295.070312 371.5625 Z M 360.28125 62.621094 " clip-rule="nonzero"/></clipPath><clipPath id="817dbe055a"><path d="M 105 132 L 121 132 L 121 145 L 105 145 Z M 105 132 " clip-rule="nonzero"/></clipPath><clipPath id="fd26ba062d"><path d="M 79.925781 3.441406 L 360.25 62.613281 L 295.035156 371.554688 L 14.710938 312.382812 Z M 79.925781 3.441406 " clip-rule="nonzero"/></clipPath><clipPath id="9fcc08b41e"><path d="M 360.28125 62.621094 L 79.960938 3.449219 L 14.746094 312.390625 L 295.070312 371.5625 Z M 360.28125 62.621094 " clip-rule="nonzero"/></clipPath><clipPath id="bb804ef69d"><path d="M 119 163 L 135 163 L 135 172 L 119 172 Z M 119 163 " clip-rule="nonzero"/></clipPath><clipPath id="5a1053e17f"><path d="M 79.925781 3.441406 L 360.25 62.613281 L 295.035156 371.554688 L 14.710938 312.382812 Z M 79.925781 3.441406 " clip-rule="nonzero"/></clipPath><clipPath id="8c510ff0dd"><path d="M 360.28125 62.621094 L 79.960938 3.449219 L 14.746094 312.390625 L 295.070312 371.5625 Z M 360.28125 62.621094 " clip-rule="nonzero"/></clipPath><clipPath id="cfda438e03"><path d="M 94 149 L 114 149 L 114 164 L 94 164 Z M 94 149 " clip-rule="nonzero"/></clipPath><clipPath id="b0999a13ed"><path d="M 79.925781 3.441406 L 360.25 62.613281 L 295.035156 371.554688 L 14.710938 312.382812 Z M 79.925781 3.441406 " clip-rule="nonzero"/></clipPath><clipPath id="07e1b1e4d9"><path d="M 360.28125 62.621094 L 79.960938 3.449219 L 14.746094 312.390625 L 295.070312 371.5625 Z M 360.28125 62.621094 " clip-rule="nonzero"/></clipPath><clipPath id="38c20bbc3c"><path d="M 99 182 L 115 182 L 115 195 L 99 195 Z M 99 182 " clip-rule="nonzero"/></clipPath><clipPath id="d7ea96aa96"><path d="M 79.925781 3.441406 L 360.25 62.613281 L 295.035156 371.554688 L 14.710938 312.382812 Z M 79.925781 3.441406 " clip-rule="nonzero"/></clipPath><clipPath id="c838b25b73"><path d="M 360.28125 62.621094 L 79.960938 3.449219 L 14.746094 312.390625 L 295.070312 371.5625 Z M 360.28125 62.621094 " clip-rule="nonzero"/></clipPath><clipPath id="a65c86f4fe"><path d="M 118 205 L 133 205 L 133 219 L 118 219 Z M 118 205 " clip-rule="nonzero"/></clipPath><clipPath id="a94b883e64"><path d="M 79.925781 3.441406 L 360.25 62.613281 L 295.035156 371.554688 L 14.710938 312.382812 Z M 79.925781 3.441406 " clip-rule="nonzero"/></clipPath><clipPath id="664686ebfc"><path d="M 360.28125 62.621094 L 79.960938 3.449219 L 14.746094 312.390625 L 295.070312 371.5625 Z M 360.28125 62.621094 " clip-rule="nonzero"/></clipPath><clipPath id="08ad67bde0"><path d="M 150 202 L 164 202 L 164 215 L 150 215 Z M 150 202 " clip-rule="nonzero"/></clipPath><clipPath id="410aab082d"><path d="M 79.925781 3.441406 L 360.25 62.613281 L 295.035156 371.554688 L 14.710938 312.382812 Z M 79.925781 3.441406 " clip-rule="nonzero"/></clipPath><clipPath id="904792e7ab"><path d="M 360.28125 62.621094 L 79.960938 3.449219 L 14.746094 312.390625 L 295.070312 371.5625 Z M 360.28125 62.621094 " clip-rule="nonzero"/></clipPath><clipPath id="1af45f5744"><path d="M 163 228 L 180 228 L 180 246 L 163 246 Z M 163 228 " clip-rule="nonzero"/></clipPath><clipPath id="5a4eaa1304"><path d="M 79.925781 3.441406 L 360.25 62.613281 L 295.035156 371.554688 L 14.710938 312.382812 Z M 79.925781 3.441406 " clip-rule="nonzero"/></clipPath><clipPath id="27e3ef8cfa"><path d="M 360.28125 62.621094 L 79.960938 3.449219 L 14.746094 312.390625 L 295.070312 371.5625 Z M 360.28125 62.621094 " clip-rule="nonzero"/></clipPath><clipPath id="7ad19cf217"><path d="M 135 231 L 154 231 L 154 252 L 135 252 Z M 135 231 " clip-rule="nonzero"/></clipPath><clipPath id="261d2de53c"><path d="M 79.925781 3.441406 L 360.25 62.613281 L 295.035156 371.554688 L 14.710938 312.382812 Z M 79.925781 3.441406 " clip-rule="nonzero"/></clipPath><clipPath id="5c75d82506"><path d="M 360.28125 62.621094 L 79.960938 3.449219 L 14.746094 312.390625 L 295.070312 371.5625 Z M 360.28125 62.621094 " clip-rule="nonzero"/></clipPath><clipPath id="2ca70966df"><path d="M 106 220 L 122 220 L 122 235 L 106 235 Z M 106 220 " clip-rule="nonzero"/></clipPath><clipPath id="75cef5a13b"><path d="M 79.925781 3.441406 L 360.25 62.613281 L 295.035156 371.554688 L 14.710938 312.382812 Z M 79.925781 3.441406 " clip-rule="nonzero"/></clipPath><clipPath id="513a31a4f3"><path d="M 360.28125 62.621094 L 79.960938 3.449219 L 14.746094 312.390625 L 295.070312 371.5625 Z M 360.28125 62.621094 " clip-rule="nonzero"/></clipPath><clipPath id="b1bfacc812"><path d="M 88 196 L 98 196 L 98 208 L 88 208 Z M 88 196 " clip-rule="nonzero"/></clipPath><clipPath id="d903fb45a9"><path d="M 79.925781 3.441406 L 360.25 62.613281 L 295.035156 371.554688 L 14.710938 312.382812 Z M 79.925781 3.441406 " clip-rule="nonzero"/></clipPath><clipPath id="19b15b464c"><path d="M 360.28125 62.621094 L 79.960938 3.449219 L 14.746094 312.390625 L 295.070312 371.5625 Z M 360.28125 62.621094 " clip-rule="nonzero"/></clipPath><clipPath id="c8fb63a032"><path d="M 118 185 L 127 185 L 127 197 L 118 197 Z M 118 185 " clip-rule="nonzero"/></clipPath><clipPath id="c5cebd6998"><path d="M 79.925781 3.441406 L 360.25 62.613281 L 295.035156 371.554688 L 14.710938 312.382812 Z M 79.925781 3.441406 " clip-rule="nonzero"/></clipPath><clipPath id="c25f425283"><path d="M 360.28125 62.621094 L 79.960938 3.449219 L 14.746094 312.390625 L 295.070312 371.5625 Z M 360.28125 62.621094 " clip-rule="nonzero"/></clipPath><clipPath id="d32c8ce017"><path d="M 101 205 L 110 205 L 110 217 L 101 217 Z M 101 205 " clip-rule="nonzero"/></clipPath><clipPath id="672b810fab"><path d="M 79.925781 3.441406 L 360.25 62.613281 L 295.035156 371.554688 L 14.710938 312.382812 Z M 79.925781 3.441406 " clip-rule="nonzero"/></clipPath><clipPath id="65f4ec8055"><path d="M 360.28125 62.621094 L 79.960938 3.449219 L 14.746094 312.390625 L 295.070312 371.5625 Z M 360.28125 62.621094 " clip-rule="nonzero"/></clipPath><clipPath id="73952cb2b7"><path d="M 116 241 L 126 241 L 126 253 L 116 253 Z M 116 241 " clip-rule="nonzero"/></clipPath><clipPath id="474fae2472"><path d="M 79.925781 3.441406 L 360.25 62.613281 L 295.035156 371.554688 L 14.710938 312.382812 Z M 79.925781 3.441406 " clip-rule="nonzero"/></clipPath><clipPath id="a41f3e9676"><path d="M 360.28125 62.621094 L 79.960938 3.449219 L 14.746094 312.390625 L 295.070312 371.5625 Z M 360.28125 62.621094 " clip-rule="nonzero"/></clipPath><clipPath id="30e37b4338"><path d="M 88 173 L 97 173 L 97 185 L 88 185 Z M 88 173 " clip-rule="nonzero"/></clipPath><clipPath id="2b50e283ab"><path d="M 79.925781 3.441406 L 360.25 62.613281 L 295.035156 371.554688 L 14.710938 312.382812 Z M 79.925781 3.441406 " clip-rule="nonzero"/></clipPath><clipPath id="cdc81d7ed3"><path d="M 360.28125 62.621094 L 79.960938 3.449219 L 14.746094 312.390625 L 295.070312 371.5625 Z M 360.28125 62.621094 " clip-rule="nonzero"/></clipPath><clipPath id="8e15c7821a"><path d="M 139 214 L 148 214 L 148 226 L 139 226 Z M 139 214 " clip-rule="nonzero"/></clipPath><clipPath id="2e3074ac38"><path d="M 79.925781 3.441406 L 360.25 62.613281 L 295.035156 371.554688 L 14.710938 312.382812 Z M 79.925781 3.441406 " clip-rule="nonzero"/></clipPath><clipPath id="70af0bf35e"><path d="M 360.28125 62.621094 L 79.960938 3.449219 L 14.746094 312.390625 L 295.070312 371.5625 Z M 360.28125 62.621094 " clip-rule="nonzero"/></clipPath><clipPath id="0c77e88495"><path d="M 142 264 L 152 264 L 152 277 L 142 277 Z M 142 264 " clip-rule="nonzero"/></clipPath><clipPath id="7766fd45a6"><path d="M 79.925781 3.441406 L 360.25 62.613281 L 295.035156 371.554688 L 14.710938 312.382812 Z M 79.925781 3.441406 " clip-rule="nonzero"/></clipPath><clipPath id="11f7af6bd0"><path d="M 360.28125 62.621094 L 79.960938 3.449219 L 14.746094 312.390625 L 295.070312 371.5625 Z M 360.28125 62.621094 " clip-rule="nonzero"/></clipPath><clipPath id="5fa628379f"><path d="M 204 296 L 214 296 L 214 308 L 204 308 Z M 204 296 " clip-rule="nonzero"/></clipPath><clipPath id="612418cef8"><path d="M 79.925781 3.441406 L 360.25 62.613281 L 295.035156 371.554688 L 14.710938 312.382812 Z M 79.925781 3.441406 " clip-rule="nonzero"/></clipPath><clipPath id="58de762284"><path d="M 360.28125 62.621094 L 79.960938 3.449219 L 14.746094 312.390625 L 295.070312 371.5625 Z M 360.28125 62.621094 " clip-rule="nonzero"/></clipPath><clipPath id="e4c0ce00f1"><path d="M 257 273 L 266 273 L 266 285 L 257 285 Z M 257 273 " clip-rule="nonzero"/></clipPath><clipPath id="f11782f7e6"><path d="M 79.925781 3.441406 L 360.25 62.613281 L 295.035156 371.554688 L 14.710938 312.382812 Z M 79.925781 3.441406 " clip-rule="nonzero"/></clipPath><clipPath id="7ae8d2d8f8"><path d="M 360.28125 62.621094 L 79.960938 3.449219 L 14.746094 312.390625 L 295.070312 371.5625 Z M 360.28125 62.621094 " clip-rule="nonzero"/></clipPath><clipPath id="df30e48902"><path d="M 252 193 L 261 193 L 261 205 L 252 205 Z M 252 193 " clip-rule="nonzero"/></clipPath><clipPath id="b20bf21e53"><path d="M 79.925781 3.441406 L 360.25 62.613281 L 295.035156 371.554688 L 14.710938 312.382812 Z M 79.925781 3.441406 " clip-rule="nonzero"/></clipPath><clipPath id="c2a92221ed"><path d="M 360.28125 62.621094 L 79.960938 3.449219 L 14.746094 312.390625 L 295.070312 371.5625 Z M 360.28125 62.621094 " clip-rule="nonzero"/></clipPath><clipPath id="6bc63aa0a6"><path d="M 226 183 L 235 183 L 235 195 L 226 195 Z M 226 183 " clip-rule="nonzero"/></clipPath><clipPath id="3834eedee9"><path d="M 79.925781 3.441406 L 360.25 62.613281 L 295.035156 371.554688 L 14.710938 312.382812 Z M 79.925781 3.441406 " clip-rule="nonzero"/></clipPath><clipPath id="d69755c947"><path d="M 360.28125 62.621094 L 79.960938 3.449219 L 14.746094 312.390625 L 295.070312 371.5625 Z M 360.28125 62.621094 " clip-rule="nonzero"/></clipPath><clipPath id="af6863f5ec"><path d="M 227 240 L 237 240 L 237 252 L 227 252 Z M 227 240 " clip-rule="nonzero"/></clipPath><clipPath id="dd63a40375"><path d="M 79.925781 3.441406 L 360.25 62.613281 L 295.035156 371.554688 L 14.710938 312.382812 Z M 79.925781 3.441406 " clip-rule="nonzero"/></clipPath><clipPath id="d924449607"><path d="M 360.28125 62.621094 L 79.960938 3.449219 L 14.746094 312.390625 L 295.070312 371.5625 Z M 360.28125 62.621094 " clip-rule="nonzero"/></clipPath><clipPath id="a30b0f9464"><path d="M 239 276 L 248 276 L 248 288 L 239 288 Z M 239 276 " clip-rule="nonzero"/></clipPath><clipPath id="6542a57314"><path d="M 79.925781 3.441406 L 360.25 62.613281 L 295.035156 371.554688 L 14.710938 312.382812 Z M 79.925781 3.441406 " clip-rule="nonzero"/></clipPath><clipPath id="c1c0cfeaed"><path d="M 360.28125 62.621094 L 79.960938 3.449219 L 14.746094 312.390625 L 295.070312 371.5625 Z M 360.28125 62.621094 " clip-rule="nonzero"/></clipPath><clipPath id="90e54c1b8c"><path d="M 266 168 L 275 168 L 275 180 L 266 180 Z M 266 168 " clip-rule="nonzero"/></clipPath><clipPath id="1af45ff7e7"><path d="M 79.925781 3.441406 L 360.25 62.613281 L 295.035156 371.554688 L 14.710938 312.382812 Z M 79.925781 3.441406 " clip-rule="nonzero"/></clipPath><clipPath id="9767b69477"><path d="M 360.28125 62.621094 L 79.960938 3.449219 L 14.746094 312.390625 L 295.070312 371.5625 Z M 360.28125 62.621094 " clip-rule="nonzero"/></clipPath><clipPath id="97f948b7df"><path d="M 249 136 L 258 136 L 258 148 L 249 148 Z M 249 136 " clip-rule="nonzero"/></clipPath><clipPath id="35ad32e611"><path d="M 79.925781 3.441406 L 360.25 62.613281 L 295.035156 371.554688 L 14.710938 312.382812 Z M 79.925781 3.441406 " clip-rule="nonzero"/></clipPath><clipPath id="9e6d5aa975"><path d="M 360.28125 62.621094 L 79.960938 3.449219 L 14.746094 312.390625 L 295.070312 371.5625 Z M 360.28125 62.621094 " clip-rule="nonzero"/></clipPath><clipPath id="37e80873ab"><path d="M 213 125 L 223 125 L 223 137 L 213 137 Z M 213 125 " clip-rule="nonzero"/></clipPath><clipPath id="9e0d21fe7a"><path d="M 79.925781 3.441406 L 360.25 62.613281 L 295.035156 371.554688 L 14.710938 312.382812 Z M 79.925781 3.441406 " clip-rule="nonzero"/></clipPath><clipPath id="a233468232"><path d="M 360.28125 62.621094 L 79.960938 3.449219 L 14.746094 312.390625 L 295.070312 371.5625 Z M 360.28125 62.621094 " clip-rule="nonzero"/></clipPath><clipPath id="1bf3b94a57"><path d="M 227 258 L 237 258 L 237 270 L 227 270 Z M 227 258 " clip-rule="nonzero"/></clipPath><clipPath id="dd5618040b"><path d="M 79.925781 3.441406 L 360.25 62.613281 L 295.035156 371.554688 L 14.710938 312.382812 Z M 79.925781 3.441406 " clip-rule="nonzero"/></clipPath><clipPath id="0e6b6d6f4f"><path d="M 360.28125 62.621094 L 79.960938 3.449219 L 14.746094 312.390625 L 295.070312 371.5625 Z M 360.28125 62.621094 " clip-rule="nonzero"/></clipPath><clipPath id="47a06e6738"><path d="M 211 279 L 221 279 L 221 291 L 211 291 Z M 211 279 " clip-rule="nonzero"/></clipPath><clipPath id="5ce34b573a"><path d="M 79.925781 3.441406 L 360.25 62.613281 L 295.035156 371.554688 L 14.710938 312.382812 Z M 79.925781 3.441406 " clip-rule="nonzero"/></clipPath><clipPath id="61c8b63233"><path d="M 360.28125 62.621094 L 79.960938 3.449219 L 14.746094 312.390625 L 295.070312 371.5625 Z M 360.28125 62.621094 " clip-rule="nonzero"/></clipPath><clipPath id="2b32d836d2"><path d="M 178 109 L 188 109 L 188 121 L 178 121 Z M 178 109 " clip-rule="nonzero"/></clipPath><clipPath id="4842dd5b17"><path d="M 79.925781 3.441406 L 360.25 62.613281 L 295.035156 371.554688 L 14.710938 312.382812 Z M 79.925781 3.441406 " clip-rule="nonzero"/></clipPath><clipPath id="6e2abc450e"><path d="M 360.28125 62.621094 L 79.960938 3.449219 L 14.746094 312.390625 L 295.070312 371.5625 Z M 360.28125 62.621094 " clip-rule="nonzero"/></clipPath><clipPath id="61095438ce"><path d="M 127 119 L 137 119 L 137 131 L 127 131 Z M 127 119 " clip-rule="nonzero"/></clipPath><clipPath id="4f68ffe164"><path d="M 79.925781 3.441406 L 360.25 62.613281 L 295.035156 371.554688 L 14.710938 312.382812 Z M 79.925781 3.441406 " clip-rule="nonzero"/></clipPath><clipPath id="f2439ba62d"><path d="M 360.28125 62.621094 L 79.960938 3.449219 L 14.746094 312.390625 L 295.070312 371.5625 Z M 360.28125 62.621094 " clip-rule="nonzero"/></clipPath><clipPath id="f20a9ee20a"><path d="M 161 109 L 171 109 L 171 121 L 161 121 Z M 161 109 " clip-rule="nonzero"/></clipPath><clipPath id="2e18741ce1"><path d="M 79.925781 3.441406 L 360.25 62.613281 L 295.035156 371.554688 L 14.710938 312.382812 Z M 79.925781 3.441406 " clip-rule="nonzero"/></clipPath><clipPath id="f718a9b112"><path d="M 360.28125 62.621094 L 79.960938 3.449219 L 14.746094 312.390625 L 295.070312 371.5625 Z M 360.28125 62.621094 " clip-rule="nonzero"/></clipPath><clipPath id="387eed2e48"><path d="M 184 152 L 197 152 L 197 164 L 184 164 Z M 184 152 " clip-rule="nonzero"/></clipPath><clipPath id="6bcaee137e"><path d="M 79.925781 3.441406 L 360.25 62.613281 L 295.035156 371.554688 L 14.710938 312.382812 Z M 79.925781 3.441406 " clip-rule="nonzero"/></clipPath><clipPath id="e100a0df8b"><path d="M 360.28125 62.621094 L 79.960938 3.449219 L 14.746094 312.390625 L 295.070312 371.5625 Z M 360.28125 62.621094 " clip-rule="nonzero"/></clipPath><clipPath id="ac1d069ca3"><path d="M 122 261 L 137 261 L 137 277 L 122 277 Z M 122 261 " clip-rule="nonzero"/></clipPath><clipPath id="f473d79b60"><path d="M 79.925781 3.441406 L 360.25 62.613281 L 295.035156 371.554688 L 14.710938 312.382812 Z M 79.925781 3.441406 " clip-rule="nonzero"/></clipPath><clipPath id="eddd3fbbba"><path d="M 360.28125 62.621094 L 79.960938 3.449219 L 14.746094 312.390625 L 295.070312 371.5625 Z M 360.28125 62.621094 " clip-rule="nonzero"/></clipPath><clipPath id="d2e51c5503"><path d="M 159 261 L 175 261 L 175 277 L 159 277 Z M 159 261 " clip-rule="nonzero"/></clipPath><clipPath id="a2a485f11f"><path d="M 79.925781 3.441406 L 360.25 62.613281 L 295.035156 371.554688 L 14.710938 312.382812 Z M 79.925781 3.441406 " clip-rule="nonzero"/></clipPath><clipPath id="af9ea30543"><path d="M 360.28125 62.621094 L 79.960938 3.449219 L 14.746094 312.390625 L 295.070312 371.5625 Z M 360.28125 62.621094 " clip-rule="nonzero"/></clipPath><clipPath id="7078e0f20b"><path d="M 142 285 L 160 285 L 160 303 L 142 303 Z M 142 285 " clip-rule="nonzero"/></clipPath><clipPath id="5ed87ebd17"><path d="M 79.925781 3.441406 L 360.25 62.613281 L 295.035156 371.554688 L 14.710938 312.382812 Z M 79.925781 3.441406 " clip-rule="nonzero"/></clipPath><clipPath id="d060e60796"><path d="M 360.28125 62.621094 L 79.960938 3.449219 L 14.746094 312.390625 L 295.070312 371.5625 Z M 360.28125 62.621094 " clip-rule="nonzero"/></clipPath><clipPath id="c58706bb1a"><path d="M 185 275 L 204 275 L 204 293 L 185 293 Z M 185 275 " clip-rule="nonzero"/></clipPath><clipPath id="55db0d347a"><path d="M 79.925781 3.441406 L 360.25 62.613281 L 295.035156 371.554688 L 14.710938 312.382812 Z M 79.925781 3.441406 " clip-rule="nonzero"/></clipPath><clipPath id="1365d299e3"><path d="M 360.28125 62.621094 L 79.960938 3.449219 L 14.746094 312.390625 L 295.070312 371.5625 Z M 360.28125 62.621094 " clip-rule="nonzero"/></clipPath><clipPath id="5f546fd383"><path d="M 241 248 L 265 248 L 265 271 L 241 271 Z M 241 248 " clip-rule="nonzero"/></clipPath><clipPath id="0922af8620"><path d="M 79.925781 3.441406 L 360.25 62.613281 L 295.035156 371.554688 L 14.710938 312.382812 Z M 79.925781 3.441406 " clip-rule="nonzero"/></clipPath><clipPath id="6890cc83ee"><path d="M 360.28125 62.621094 L 79.960938 3.449219 L 14.746094 312.390625 L 295.070312 371.5625 Z M 360.28125 62.621094 " clip-rule="nonzero"/></clipPath><clipPath id="a4e9ade3d8"><path d="M 234 225 L 251 225 L 251 241 L 234 241 Z M 234 225 " clip-rule="nonzero"/></clipPath><clipPath id="58bcd9b098"><path d="M 79.925781 3.441406 L 360.25 62.613281 L 295.035156 371.554688 L 14.710938 312.382812 Z M 79.925781 3.441406 " clip-rule="nonzero"/></clipPath><clipPath id="f14c3c66d8"><path d="M 360.28125 62.621094 L 79.960938 3.449219 L 14.746094 312.390625 L 295.070312 371.5625 Z M 360.28125 62.621094 " clip-rule="nonzero"/></clipPath><clipPath id="db1b18b318"><path d="M 212 212 L 226 212 L 226 226 L 212 226 Z M 212 212 " clip-rule="nonzero"/></clipPath><clipPath id="4c987358c0"><path d="M 79.925781 3.441406 L 360.25 62.613281 L 295.035156 371.554688 L 14.710938 312.382812 Z M 79.925781 3.441406 " clip-rule="nonzero"/></clipPath><clipPath id="ae935609cc"><path d="M 360.28125 62.621094 L 79.960938 3.449219 L 14.746094 312.390625 L 295.070312 371.5625 Z M 360.28125 62.621094 " clip-rule="nonzero"/></clipPath><clipPath id="02ccf43d21"><path d="M 280 214 L 295 214 L 295 226 L 280 226 Z M 280 214 " clip-rule="nonzero"/></clipPath><clipPath id="1e837ce474"><path d="M 79.925781 3.441406 L 360.25 62.613281 L 295.035156 371.554688 L 14.710938 312.382812 Z M 79.925781 3.441406 " clip-rule="nonzero"/></clipPath><clipPath id="d0571d05e4"><path d="M 360.28125 62.621094 L 79.960938 3.449219 L 14.746094 312.390625 L 295.070312 371.5625 Z M 360.28125 62.621094 " clip-rule="nonzero"/></clipPath><clipPath id="bb24b2a999"><path d="M 230 201 L 248 201 L 248 218 L 230 218 Z M 230 201 " clip-rule="nonzero"/></clipPath><clipPath id="79e4ab453e"><path d="M 79.925781 3.441406 L 360.25 62.613281 L 295.035156 371.554688 L 14.710938 312.382812 Z M 79.925781 3.441406 " clip-rule="nonzero"/></clipPath><clipPath id="b2e357913b"><path d="M 360.28125 62.621094 L 79.960938 3.449219 L 14.746094 312.390625 L 295.070312 371.5625 Z M 360.28125 62.621094 " clip-rule="nonzero"/></clipPath><clipPath id="6e46698507"><path d="M 266 188 L 281 188 L 281 205 L 266 205 Z M 266 188 " clip-rule="nonzero"/></clipPath><clipPath id="0cc3fed109"><path d="M 79.925781 3.441406 L 360.25 62.613281 L 295.035156 371.554688 L 14.710938 312.382812 Z M 79.925781 3.441406 " clip-rule="nonzero"/></clipPath><clipPath id="660577e945"><path d="M 360.28125 62.621094 L 79.960938 3.449219 L 14.746094 312.390625 L 295.070312 371.5625 Z M 360.28125 62.621094 " clip-rule="nonzero"/></clipPath><clipPath id="2aaf64a37e"><path d="M 262 216 L 282 216 L 282 235 L 262 235 Z M 262 216 " clip-rule="nonzero"/></clipPath><clipPath id="5ac7517cc3"><path d="M 79.925781 3.441406 L 360.25 62.613281 L 295.035156 371.554688 L 14.710938 312.382812 Z M 79.925781 3.441406 " clip-rule="nonzero"/></clipPath><clipPath id="9f0a4b0b0c"><path d="M 360.28125 62.621094 L 79.960938 3.449219 L 14.746094 312.390625 L 295.070312 371.5625 Z M 360.28125 62.621094 " clip-rule="nonzero"/></clipPath><clipPath id="d9b4b6c551"><path d="M 273 239 L 291 239 L 291 257 L 273 257 Z M 273 239 " clip-rule="nonzero"/></clipPath><clipPath id="28632b5a5f"><path d="M 79.925781 3.441406 L 360.25 62.613281 L 295.035156 371.554688 L 14.710938 312.382812 Z M 79.925781 3.441406 " clip-rule="nonzero"/></clipPath><clipPath id="fe126040f1"><path d="M 360.28125 62.621094 L 79.960938 3.449219 L 14.746094 312.390625 L 295.070312 371.5625 Z M 360.28125 62.621094 " clip-rule="nonzero"/></clipPath><clipPath id="6b050500b6"><path d="M 133 180 L 153 180 L 153 195 L 133 195 Z M 133 180 " clip-rule="nonzero"/></clipPath><clipPath id="5ba4e8293a"><path d="M 79.925781 3.441406 L 360.25 62.613281 L 295.035156 371.554688 L 14.710938 312.382812 Z M 79.925781 3.441406 " clip-rule="nonzero"/></clipPath><clipPath id="756617f6cd"><path d="M 360.28125 62.621094 L 79.960938 3.449219 L 14.746094 312.390625 L 295.070312 371.5625 Z M 360.28125 62.621094 " clip-rule="nonzero"/></clipPath><clipPath id="ec0767c47a"><path d="M 179 251 L 199 251 L 199 266 L 179 266 Z M 179 251 " clip-rule="nonzero"/></clipPath><clipPath id="003eb67270"><path d="M 79.925781 3.441406 L 360.25 62.613281 L 295.035156 371.554688 L 14.710938 312.382812 Z M 79.925781 3.441406 " clip-rule="nonzero"/></clipPath><clipPath id="67d52e081b"><path d="M 360.28125 62.621094 L 79.960938 3.449219 L 14.746094 312.390625 L 295.070312 371.5625 Z M 360.28125 62.621094 " clip-rule="nonzero"/></clipPath><clipPath id="2fa3caafbf"><path d="M 167 294 L 187 294 L 187 310 L 167 310 Z M 167 294 " clip-rule="nonzero"/></clipPath><clipPath id="316a8433cd"><path d="M 79.925781 3.441406 L 360.25 62.613281 L 295.035156 371.554688 L 14.710938 312.382812 Z M 79.925781 3.441406 " clip-rule="nonzero"/></clipPath><clipPath id="f3d51d25c0"><path d="M 360.28125 62.621094 L 79.960938 3.449219 L 14.746094 312.390625 L 295.070312 371.5625 Z M 360.28125 62.621094 " clip-rule="nonzero"/></clipPath><clipPath id="bde063e05a"><path d="M 205 162 L 225 162 L 225 177 L 205 177 Z M 205 162 " clip-rule="nonzero"/></clipPath><clipPath id="50966c00de"><path d="M 79.925781 3.441406 L 360.25 62.613281 L 295.035156 371.554688 L 14.710938 312.382812 Z M 79.925781 3.441406 " clip-rule="nonzero"/></clipPath><clipPath id="00c3c7f3c2"><path d="M 360.28125 62.621094 L 79.960938 3.449219 L 14.746094 312.390625 L 295.070312 371.5625 Z M 360.28125 62.621094 " clip-rule="nonzero"/></clipPath><clipPath id="9056e26203"><path d="M 245 154 L 265 154 L 265 169 L 245 169 Z M 245 154 " clip-rule="nonzero"/></clipPath><clipPath id="6c40fe0f32"><path d="M 79.925781 3.441406 L 360.25 62.613281 L 295.035156 371.554688 L 14.710938 312.382812 Z M 79.925781 3.441406 " clip-rule="nonzero"/></clipPath><clipPath id="6e0a38dd1b"><path d="M 360.28125 62.621094 L 79.960938 3.449219 L 14.746094 312.390625 L 295.070312 371.5625 Z M 360.28125 62.621094 " clip-rule="nonzero"/></clipPath></defs><g clip-path="url(#b406198930)"><g clip-path="url(#fa80ffa67a)"><g clip-path="url(#e4520d2a8f)"><path fill="#2b2e4a" d="M 174.632812 88.921875 C 174.214844 88.738281 173.828125 88.558594 173.496094 88.289062 C 170.816406 86.289062 170.105469 82.382812 169.824219 78.929688 C 168.324219 60.363281 170.796875 41.53125 177.015625 23.972656 C 170.484375 30.167969 164.835938 37.300781 160.261719 45.050781 L 148.523438 20.863281 C 148.226562 20.246094 147.75 19.722656 147.128906 19.429688 C 145.582031 18.710938 144.417969 19.898438 143.589844 21.03125 C 137.972656 28.625 134.734375 37.933594 134.433594 47.402344 C 134.417969 48.246094 134.175781 49.078125 133.675781 49.753906 C 131.328125 52.980469 126.910156 49.175781 124.664062 46.054688 C 118.722656 37.851562 109.210938 32.347656 99.140625 31.332031 C 98.792969 31.292969 98.457031 31.320312 98.136719 31.449219 C 96.878906 32 97.167969 33.5625 97.582031 34.691406 C 99.679688 40.683594 101.777344 46.675781 103.875 52.667969 L 76.195312 44.148438 C 75.246094 43.851562 74.183594 43.953125 73.378906 44.503906 C 70.90625 46.167969 73.222656 49.726562 75.5 51.476562 C 87.675781 60.902344 101.003906 69.984375 108.183594 83.609375 C 110.582031 88.164062 112.214844 93.277344 111.691406 98.386719 C 110.351562 111.6875 96.203125 119.015625 85.425781 126.925781 C 59.769531 145.796875 47.316406 179.273438 48.894531 211.074219 C 50.464844 242.90625 64.566406 273.074219 83.398438 298.757812 C 88.417969 305.597656 93.8125 312.21875 100.203125 317.8125 C 108.769531 325.332031 119.003906 330.824219 129.691406 334.777344 C 141.351562 339.066406 153.722656 341.546875 166.144531 341.625 C 191.484375 341.75 215.6875 331.9375 239.136719 322.296875 C 248.398438 318.472656 257.730469 314.632812 266.234375 309.28125 C 272.972656 305.054688 279.078125 299.945312 285.070312 294.746094 C 295.769531 285.515625 306.324219 275.566406 312.921875 263.019531 C 321.355469 247.042969 322.609375 227.949219 319.140625 210.207031 C 315.671875 192.46875 307.742188 175.910156 298.597656 160.300781 C 288.730469 143.496094 277.335938 127.574219 264.585938 112.808594 C 255.800781 102.628906 245.984375 92.6875 233.457031 87.695312 C 215.964844 80.703125 197.121094 85.082031 178.703125 89.292969 C 177.359375 89.628906 175.917969 89.488281 174.632812 88.921875 Z M 174.632812 88.921875 " fill-opacity="1" fill-rule="nonzero"/></g></g></g><g clip-path="url(#79aab1d83d)"><g clip-path="url(#84e8e36af5)"><g clip-path="url(#3f60bc18a2)"><path fill="#a6b1e1" d="M 140.050781 88.835938 C 138.324219 87.265625 136.183594 86.125 133.90625 85.613281 C 133.1875 85.460938 132.5 85.9375 132.378906 86.664062 C 131.03125 96.140625 123.914062 103.875 117.164062 110.804688 C 114.707031 113.324219 112.28125 115.847656 109.824219 118.363281 C 97.898438 130.632812 85.542969 143.695312 81.292969 160.265625 C 77.824219 173.925781 80.324219 188.363281 83.699219 202.066406 C 88.894531 223.238281 96.117188 243.925781 105.183594 263.761719 C 112.933594 280.707031 122.597656 297.699219 138.054688 308.140625 C 155.421875 319.902344 178.039062 321.773438 198.648438 317.699219 C 219.257812 313.628906 238.308594 304.101562 256.953125 294.492188 C 264.019531 290.859375 271.132812 287.167969 277.183594 282.015625 C 284.171875 276.113281 289.496094 268.519531 294.730469 261.042969 C 301.035156 252.054688 307.5 242.617188 308.914062 231.75 C 309.914062 224.0625 308.261719 216.269531 306.082031 208.824219 C 296.289062 175.253906 276.050781 145.714844 254.429688 118.238281 C 249.769531 112.324219 244.945312 106.410156 238.796875 102.140625 C 225.273438 92.757812 207.546875 92.605469 191.089844 93.539062 C 174.769531 94.46875 157.554688 96.839844 142.648438 90.136719 C 142.441406 90.027344 142.230469 89.949219 142.011719 89.902344 C 141.238281 89.707031 140.59375 89.34375 140.050781 88.835938 Z M 140.050781 88.835938 " fill-opacity="1" fill-rule="nonzero"/></g></g></g><g clip-path="url(#353870a46f)"><g clip-path="url(#c6768513e5)"><g clip-path="url(#783ebdc8a6)"><path fill="#faf3f0" d="M 187.265625 127.59375 C 186.75 125.855469 185.074219 124.683594 183.335938 124.25 C 181.597656 123.820312 179.761719 124.019531 177.960938 124.195312 C 175.859375 124.402344 173.644531 124.6875 172.410156 127.136719 C 171.839844 128.289062 171.601562 129.578125 171.859375 130.839844 C 172.53125 134.148438 175.867188 136.125 179.089844 136.019531 C 184.378906 135.863281 189.167969 133.578125 187.535156 128.632812 C 187.519531 128.5625 187.5 128.492188 187.480469 128.425781 Z M 187.265625 127.59375 " fill-opacity="1" fill-rule="nonzero"/></g></g></g><g clip-path="url(#0fbdbe6098)"><g clip-path="url(#e6ace99612)"><g clip-path="url(#124972e0b4)"><path fill="#faf3f0" d="M 205.324219 146.585938 C 204.503906 149.546875 202.808594 152.617188 199.816406 152.117188 C 198.582031 151.921875 197.546875 151.113281 196.886719 150.0625 C 195.402344 147.660156 194.671875 144.46875 195.734375 141.753906 C 196.578125 139.613281 198.761719 137.921875 201.078125 138.085938 C 203.394531 138.246094 205.484375 140.417969 205.59375 142.824219 L 205.632812 144.203125 C 205.621094 145.015625 205.519531 145.8125 205.324219 146.585938 Z M 205.324219 146.585938 " fill-opacity="1" fill-rule="nonzero"/></g></g></g><g clip-path="url(#f88a261f33)"><g clip-path="url(#2a11b73bf1)"><g clip-path="url(#4784768d69)"><path fill="#faf3f0" d="M 213.207031 116.976562 C 212.964844 117.808594 212.507812 118.59375 211.828125 119.167969 C 210.800781 120.027344 209.460938 120.496094 208.144531 120.542969 C 203.800781 120.703125 199.949219 116.070312 200.90625 111.835938 C 201.09375 110.960938 201.503906 110.101562 202.152344 109.488281 C 203.480469 108.296875 205.449219 108.417969 207.199219 108.625 C 208.953125 108.832031 210.773438 109.019531 212.226562 110.011719 C 213.691406 110.976562 214.640625 112.972656 213.875 114.574219 Z M 213.207031 116.976562 " fill-opacity="1" fill-rule="nonzero"/></g></g></g><g clip-path="url(#5e186c3d64)"><g clip-path="url(#876bff2362)"><g clip-path="url(#40fd81ea67)"><path fill="#faf3f0" d="M 244.558594 123.398438 C 244.644531 123.777344 244.828125 124.140625 245.09375 124.425781 C 246.90625 126.507812 245.390625 130.59375 242.949219 132.101562 C 240.328125 133.703125 236.785156 133.019531 234.320312 131.226562 C 233.328125 130.527344 232.472656 129.628906 231.875 128.589844 C 229.835938 124.960938 231 119.753906 235.089844 118.921875 C 239.085938 118.097656 243.890625 119.601562 244.554688 122.8125 C 244.582031 122.980469 244.535156 123.199219 244.597656 123.375 Z M 244.558594 123.398438 " fill-opacity="1" fill-rule="nonzero"/></g></g></g><g clip-path="url(#dde26236ef)"><g clip-path="url(#e45e895c62)"><g clip-path="url(#95c5f007f4)"><path fill="#faf3f0" d="M 237.496094 153.769531 C 236.976562 154.378906 236.519531 155 236.140625 155.703125 C 234.101562 159.484375 227.386719 159.4375 223.917969 156.550781 C 220.222656 153.484375 220.566406 146.898438 224.40625 144.019531 C 228.246094 141.140625 234.433594 142.449219 236.972656 146.507812 C 238.339844 148.691406 238.683594 151.539062 237.496094 153.769531 Z M 237.496094 153.769531 " fill-opacity="1" fill-rule="nonzero"/></g></g></g><g clip-path="url(#6c1ffae8a2)"><g clip-path="url(#353b08b370)"><g clip-path="url(#f5b1d7d1fc)"><path fill="#faf3f0" d="M 253.476562 174.410156 C 254.5 177.761719 251.183594 180.78125 248.164062 182.5625 C 247.011719 183.230469 245.796875 183.890625 244.464844 184 C 242.179688 184.167969 239.953125 182.492188 239.136719 180.328125 C 238.320312 178.164062 238.679688 175.695312 239.734375 173.632812 C 241.339844 170.511719 244.929688 168.199219 248.332031 169.082031 C 251.519531 169.917969 251.984375 170.800781 253.085938 173.316406 C 253.214844 173.636719 253.34375 173.957031 253.433594 174.304688 Z M 253.476562 174.410156 " fill-opacity="1" fill-rule="nonzero"/></g></g></g><g clip-path="url(#7f41e27893)"><g clip-path="url(#43f000219f)"><g clip-path="url(#e11f00d34a)"><path fill="#faf3f0" d="M 216.726562 193.09375 C 216.523438 195.4375 214.425781 197.34375 212.109375 197.636719 C 209.796875 197.933594 207.421875 196.8125 205.867188 195.046875 C 203.578125 192.441406 203 188.371094 204.710938 185.367188 C 206.421875 182.367188 210.441406 180.800781 213.667969 182.070312 C 216.890625 183.335938 218.726562 187.476562 217.277344 190.632812 " fill-opacity="1" fill-rule="nonzero"/></g></g></g><g clip-path="url(#da310a38fd)"><g clip-path="url(#3db9ee4cd6)"><g clip-path="url(#137808a3fd)"><path fill="#faf3f0" d="M 162.0625 163.796875 C 160.167969 166.890625 160.773438 165.875 159.421875 167.648438 C 158.066406 169.417969 155.535156 170.125 153.480469 169.332031 C 152.304688 168.886719 151.347656 168 150.613281 166.996094 C 148.6875 164.371094 148.34375 160.574219 150.039062 157.800781 C 151.769531 155.03125 155.554688 153.644531 158.539062 154.960938 C 161.527344 156.273438 164.625 159.378906 162.953125 162.191406 Z M 162.0625 163.796875 " fill-opacity="1" fill-rule="nonzero"/></g></g></g><g clip-path="url(#7e3e3bfb38)"><g clip-path="url(#c7b2ce9ed0)"><g clip-path="url(#f263b487e3)"><path fill="#faf3f0" d="M 146.957031 144.875 C 146.699219 148.574219 142.703125 151.421875 139.039062 150.84375 C 135.054688 150.230469 132.035156 146.132812 132.265625 142.101562 C 132.296875 141.648438 132.363281 141.175781 132.558594 140.726562 C 134.167969 136.496094 140.773438 137.988281 143.988281 139.15625 C 144.6875 139.402344 145.320312 139.796875 145.835938 140.296875 C 146.671875 141.125 147.082031 141.964844 147.203125 142.9375 C 147.28125 143.507812 147.1875 144.105469 147.035156 144.664062 Z M 146.957031 144.875 " fill-opacity="1" fill-rule="nonzero"/></g></g></g><g clip-path="url(#817dbe055a)"><g clip-path="url(#fd26ba062d)"><g clip-path="url(#9fcc08b41e)"><path fill="#faf3f0" d="M 120.753906 139.117188 C 120.671875 139.816406 120.496094 140.496094 120.273438 141.070312 C 119.277344 143.472656 116.472656 144.542969 114.058594 144.851562 C 111.179688 145.191406 108.507812 143.777344 106.882812 141.410156 C 105.292969 139.050781 104.890625 135.539062 106.941406 133.554688 C 109.152344 131.445312 112.691406 132.15625 115.613281 133.003906 C 117 133.394531 118.441406 133.828125 119.515625 134.773438 C 120.652344 135.730469 120.925781 137.519531 120.753906 139.117188 Z M 120.753906 139.117188 " fill-opacity="1" fill-rule="nonzero"/></g></g></g><g clip-path="url(#bb804ef69d)"><g clip-path="url(#5a1053e17f)"><g clip-path="url(#8c510ff0dd)"><path fill="#faf3f0" d="M 134.453125 168.089844 C 131.691406 170.804688 127.605469 172.0625 123.765625 171.546875 C 122.722656 171.390625 121.671875 171.105469 120.78125 170.523438 C 119.898438 169.914062 119.25 168.960938 119.175781 167.933594 C 119.113281 166.84375 119.660156 165.785156 120.496094 165.078125 C 121.300781 164.367188 122.335938 163.933594 123.410156 163.636719 C 126.328125 162.816406 129.445312 162.886719 132.394531 163.609375 C 133.011719 163.769531 133.65625 163.972656 134.160156 164.371094 C 134.65625 164.804688 134.929688 165.515625 134.703125 166.117188 " fill-opacity="1" fill-rule="nonzero"/></g></g></g><g clip-path="url(#cfda438e03)"><g clip-path="url(#b0999a13ed)"><g clip-path="url(#07e1b1e4d9)"><path fill="#faf3f0" d="M 111.773438 161.246094 C 109.46875 163.339844 105.410156 163.851562 102.292969 163.621094 C 99.183594 163.355469 96.171875 161.378906 95.058594 158.46875 C 93.941406 155.554688 95.085938 151.847656 97.820312 150.335938 C 100.144531 149.0625 102.996094 149.46875 105.550781 150.203125 C 107.957031 150.875 110.386719 151.878906 112.007812 153.789062 C 113.628906 155.695312 114.097656 158.734375 112.519531 160.652344 Z M 111.773438 161.246094 " fill-opacity="1" fill-rule="nonzero"/></g></g></g><g clip-path="url(#38c20bbc3c)"><g clip-path="url(#d7ea96aa96)"><g clip-path="url(#c838b25b73)"><path fill="#faf3f0" d="M 114.300781 187.46875 C 114.878906 190.757812 112.160156 194.199219 108.804688 194.632812 C 105.449219 195.070312 102.132812 192.996094 100.320312 190.132812 C 99.613281 189.003906 99.074219 187.683594 99.378906 186.410156 C 99.785156 184.632812 101.574219 183.574219 103.296875 182.992188 C 105.660156 182.152344 108.371094 181.84375 110.613281 182.96875 C 111.5 183.417969 112.414062 183.875 113.027344 184.6875 C 113.328125 185.109375 113.585938 185.589844 113.8125 186.0625 C 114.070312 186.539062 114.207031 186.992188 114.300781 187.46875 Z M 114.300781 187.46875 " fill-opacity="1" fill-rule="nonzero"/></g></g></g><g clip-path="url(#a65c86f4fe)"><g clip-path="url(#a94b883e64)"><g clip-path="url(#664686ebfc)"><path fill="#faf3f0" d="M 132.25 210.683594 C 132.257812 211.269531 132.195312 211.878906 132.039062 212.464844 C 131.402344 215.171875 131.515625 216.792969 128.703125 217.898438 C 125.609375 219.105469 121.714844 218.382812 119.613281 215.816406 C 117.472656 213.273438 117.628906 208.96875 120.195312 206.863281 C 121.105469 206.109375 122.28125 205.640625 123.449219 205.363281 C 125.410156 204.898438 127.570312 204.863281 129.363281 205.796875 C 131.164062 206.699219 132.511719 208.679688 132.25 210.683594 Z M 132.25 210.683594 " fill-opacity="1" fill-rule="nonzero"/></g></g></g><g clip-path="url(#08ad67bde0)"><g clip-path="url(#410aab082d)"><g clip-path="url(#904792e7ab)"><path fill="#faf3f0" d="M 162.785156 206.289062 C 164.105469 209.636719 161.714844 213.832031 158.183594 214.492188 C 154.648438 215.148438 150.933594 212.179688 150.714844 208.574219 C 150.5625 205.734375 152.613281 202.835938 155.417969 202.382812 C 157.652344 202.007812 159.886719 202.542969 161.457031 204.082031 C 162.050781 204.667969 162.453125 205.402344 162.742188 206.183594 Z M 162.785156 206.289062 " fill-opacity="1" fill-rule="nonzero"/></g></g></g><g clip-path="url(#1af45f5744)"><g clip-path="url(#5a4eaa1304)"><g clip-path="url(#27e3ef8cfa)"><path fill="#faf3f0" d="M 178.78125 238.621094 C 178.667969 238.988281 178.558594 239.359375 178.542969 239.746094 C 178.113281 244.09375 172.582031 246.945312 168.503906 245.234375 C 164.277344 243.460938 162.273438 238.109375 163.410156 233.648438 C 163.855469 231.847656 164.851562 230.066406 166.511719 229.308594 C 168.539062 228.363281 170.996094 229.109375 172.988281 229.402344 C 174.671875 229.625 176.257812 230.320312 177.507812 231.496094 C 179.871094 233.757812 179.507812 235.476562 178.886719 238.414062 Z M 178.78125 238.621094 " fill-opacity="1" fill-rule="nonzero"/></g></g></g><g clip-path="url(#7ad19cf217)"><g clip-path="url(#261d2de53c)"><g clip-path="url(#5c75d82506)"><path fill="#faf3f0" d="M 152.582031 243.339844 C 152.089844 244.28125 151.453125 245.128906 150.824219 245.941406 C 149.453125 247.644531 147.957031 249.480469 145.855469 250.3125 C 143.066406 251.453125 139.574219 251.304688 137.441406 249.1875 C 135.148438 246.910156 135.179688 243.195312 135.785156 240.023438 C 136.347656 237.042969 137.347656 234.019531 140.476562 232.496094 C 143.203125 231.175781 146.429688 231.664062 148.808594 233.535156 C 150.710938 235.046875 152.71875 237.136719 153.242188 239.597656 C 153.507812 240.957031 153.152344 242.1875 152.582031 243.339844 Z M 152.582031 243.339844 " fill-opacity="1" fill-rule="nonzero"/></g></g></g><g clip-path="url(#2ca70966df)"><g clip-path="url(#75cef5a13b)"><g clip-path="url(#513a31a4f3)"><path fill="#faf3f0" d="M 121.878906 227.492188 C 121.902344 227.691406 121.925781 227.894531 121.878906 228.113281 C 121.660156 230.546875 119.878906 232.652344 117.660156 233.71875 C 115.367188 234.832031 112.707031 234.925781 110.179688 234.523438 C 108.914062 234.320312 107.558594 233.9375 106.871094 232.875 C 106.378906 232.121094 106.324219 231.128906 106.351562 230.222656 C 106.472656 227.179688 107.488281 224.0625 109.960938 222.101562 C 111.796875 220.664062 114.25 220.332031 116.464844 221.125 C 118.988281 222.019531 120.378906 223.78125 121.554688 226.410156 C 121.75 226.714844 121.867188 227.097656 121.878906 227.492188 Z M 121.878906 227.492188 " fill-opacity="1" fill-rule="nonzero"/></g></g></g><g clip-path="url(#b1bfacc812)"><g clip-path="url(#d903fb45a9)"><g clip-path="url(#19b15b464c)"><path fill="#faf3f0" d="M 97.0625 203.253906 C 96.398438 205.007812 95.359375 206.683594 93.542969 207.40625 C 92.363281 207.878906 91.019531 207.757812 90.039062 206.996094 C 88.558594 205.800781 88.765625 203.886719 89 202.171875 C 89.355469 199.703125 90.265625 196.628906 92.972656 196.644531 C 93.917969 196.648438 94.808594 197.066406 95.515625 197.738281 C 96.820312 198.992188 97.363281 199.824219 97.332031 201.972656 C 97.308594 202.394531 97.21875 202.832031 97.0625 203.253906 Z M 97.0625 203.253906 " fill-opacity="1" fill-rule="nonzero"/></g></g></g><g clip-path="url(#c8fb63a032)"><g clip-path="url(#c5cebd6998)"><g clip-path="url(#c25f425283)"><path fill="#faf3f0" d="M 126.265625 192.019531 C 125.601562 193.773438 124.5625 195.449219 122.746094 196.171875 C 121.570312 196.644531 120.222656 196.523438 119.242188 195.761719 C 117.765625 194.566406 117.972656 192.652344 118.203125 190.9375 C 118.5625 188.46875 119.472656 185.394531 122.175781 185.410156 C 123.125 185.414062 124.015625 185.832031 124.722656 186.503906 C 126.023438 187.757812 126.566406 188.589844 126.539062 190.738281 C 126.515625 191.15625 126.421875 191.59375 126.265625 192.019531 Z M 126.265625 192.019531 " fill-opacity="1" fill-rule="nonzero"/></g></g></g><g clip-path="url(#d32c8ce017)"><g clip-path="url(#672b810fab)"><g clip-path="url(#65f4ec8055)"><path fill="#faf3f0" d="M 109.4375 212.527344 C 108.773438 214.277344 107.734375 215.953125 105.914062 216.679688 C 104.738281 217.148438 103.394531 217.027344 102.410156 216.265625 C 100.933594 215.074219 101.140625 213.15625 101.371094 211.445312 C 101.730469 208.972656 102.640625 205.902344 105.347656 205.917969 C 106.292969 205.921875 107.183594 206.335938 107.890625 207.007812 C 109.191406 208.261719 109.734375 209.097656 109.707031 211.246094 C 109.652344 211.65625 109.589844 212.101562 109.4375 212.527344 Z M 109.4375 212.527344 " fill-opacity="1" fill-rule="nonzero"/></g></g></g><g clip-path="url(#73952cb2b7)"><g clip-path="url(#474fae2472)"><g clip-path="url(#a41f3e9676)"><path fill="#faf3f0" d="M 125.035156 247.808594 C 124.371094 249.5625 123.332031 251.238281 121.511719 251.964844 C 120.335938 252.433594 118.992188 252.3125 118.011719 251.550781 C 116.53125 250.355469 116.738281 248.441406 116.972656 246.726562 C 117.328125 244.257812 118.238281 241.183594 120.945312 241.199219 C 121.890625 241.203125 122.78125 241.621094 123.488281 242.292969 C 124.792969 243.546875 125.332031 244.378906 125.304688 246.527344 C 125.28125 246.949219 125.1875 247.386719 125.035156 247.808594 Z M 125.035156 247.808594 " fill-opacity="1" fill-rule="nonzero"/></g></g></g><g clip-path="url(#30e37b4338)"><g clip-path="url(#2b50e283ab)"><g clip-path="url(#cdc81d7ed3)"><path fill="#faf3f0" d="M 96.347656 179.730469 C 95.683594 181.484375 94.644531 183.15625 92.828125 183.882812 C 91.648438 184.355469 90.304688 184.234375 89.324219 183.472656 C 87.84375 182.277344 88.054688 180.363281 88.285156 178.648438 C 88.644531 176.179688 89.550781 173.105469 92.257812 173.121094 C 93.203125 173.125 94.09375 173.542969 94.800781 174.214844 C 96.105469 175.46875 96.648438 176.300781 96.617188 178.449219 C 96.59375 178.867188 96.503906 179.304688 96.347656 179.730469 Z M 96.347656 179.730469 " fill-opacity="1" fill-rule="nonzero"/></g></g></g><g clip-path="url(#8e15c7821a)"><g clip-path="url(#2e3074ac38)"><g clip-path="url(#70af0bf35e)"><path fill="#faf3f0" d="M 147.71875 220.605469 C 147.054688 222.359375 146.015625 224.035156 144.199219 224.761719 C 143.019531 225.230469 141.675781 225.109375 140.695312 224.347656 C 139.214844 223.152344 139.425781 221.238281 139.65625 219.523438 C 140.015625 217.054688 140.921875 213.980469 143.628906 214 C 144.574219 214.003906 145.464844 214.417969 146.171875 215.089844 C 147.476562 216.34375 148.019531 217.175781 147.988281 219.324219 C 147.964844 219.746094 147.875 220.183594 147.71875 220.605469 Z M 147.71875 220.605469 " fill-opacity="1" fill-rule="nonzero"/></g></g></g><g clip-path="url(#0c77e88495)"><g clip-path="url(#7766fd45a6)"><g clip-path="url(#11f7af6bd0)"><path fill="#faf3f0" d="M 151.222656 271.585938 C 150.558594 273.339844 149.519531 275.011719 147.703125 275.738281 C 146.527344 276.207031 145.179688 276.089844 144.199219 275.324219 C 142.71875 274.132812 142.929688 272.21875 143.160156 270.503906 C 143.519531 268.035156 144.429688 264.960938 147.132812 264.976562 C 148.078125 264.980469 148.972656 265.398438 149.679688 266.070312 C 150.980469 267.324219 151.523438 268.15625 151.492188 270.304688 C 151.46875 270.722656 151.378906 271.160156 151.222656 271.585938 Z M 151.222656 271.585938 " fill-opacity="1" fill-rule="nonzero"/></g></g></g><g clip-path="url(#5fa628379f)"><g clip-path="url(#612418cef8)"><g clip-path="url(#58de762284)"><path fill="#faf3f0" d="M 212.964844 302.929688 C 212.300781 304.683594 211.261719 306.359375 209.441406 307.085938 C 208.265625 307.554688 206.921875 307.433594 205.9375 306.671875 C 204.460938 305.476562 204.667969 303.5625 204.898438 301.851562 C 205.257812 299.378906 206.167969 296.308594 208.875 296.324219 C 209.820312 296.328125 210.710938 296.742188 211.417969 297.414062 C 212.71875 298.667969 213.261719 299.5 213.234375 301.648438 C 213.210938 302.070312 213.117188 302.507812 212.964844 302.929688 Z M 212.964844 302.929688 " fill-opacity="1" fill-rule="nonzero"/></g></g></g><g clip-path="url(#e4c0ce00f1)"><g clip-path="url(#f11782f7e6)"><g clip-path="url(#7ae8d2d8f8)"><path fill="#faf3f0" d="M 265.296875 279.867188 C 264.632812 281.617188 263.59375 283.292969 261.777344 284.019531 C 260.597656 284.488281 259.253906 284.367188 258.273438 283.605469 C 256.792969 282.414062 257 280.496094 257.234375 278.785156 C 257.589844 276.3125 258.5 273.242188 261.207031 273.257812 C 262.152344 273.261719 263.042969 273.675781 263.75 274.347656 C 265.054688 275.601562 265.597656 276.4375 265.566406 278.585938 C 265.542969 279.003906 265.453125 279.441406 265.296875 279.867188 Z M 265.296875 279.867188 " fill-opacity="1" fill-rule="nonzero"/></g></g></g><g clip-path="url(#df30e48902)"><g clip-path="url(#b20bf21e53)"><g clip-path="url(#c2a92221ed)"><path fill="#faf3f0" d="M 260.570312 200.195312 C 259.90625 201.949219 258.867188 203.621094 257.046875 204.347656 C 255.871094 204.820312 254.527344 204.699219 253.542969 203.9375 C 252.066406 202.742188 252.273438 200.828125 252.503906 199.113281 C 252.863281 196.644531 253.773438 193.570312 256.480469 193.585938 C 257.425781 193.589844 258.316406 194.007812 259.023438 194.679688 C 260.324219 195.933594 260.867188 196.765625 260.839844 198.914062 C 260.785156 199.328125 260.722656 199.769531 260.570312 200.195312 Z M 260.570312 200.195312 " fill-opacity="1" fill-rule="nonzero"/></g></g></g><g clip-path="url(#6bc63aa0a6)"><g clip-path="url(#3834eedee9)"><g clip-path="url(#d69755c947)"><path fill="#faf3f0" d="M 234.234375 190.097656 C 233.570312 191.851562 232.53125 193.527344 230.714844 194.253906 C 229.535156 194.722656 228.191406 194.601562 227.210938 193.839844 C 225.730469 192.644531 225.941406 190.730469 226.171875 189.015625 C 226.53125 186.546875 227.4375 183.472656 230.144531 183.492188 C 231.089844 183.496094 231.980469 183.910156 232.6875 184.582031 C 233.992188 185.835938 234.535156 186.667969 234.503906 188.816406 C 234.449219 189.230469 234.390625 189.675781 234.234375 190.097656 Z M 234.234375 190.097656 " fill-opacity="1" fill-rule="nonzero"/></g></g></g><g clip-path="url(#af6863f5ec)"><g clip-path="url(#dd63a40375)"><g clip-path="url(#d924449607)"><path fill="#faf3f0" d="M 235.800781 246.707031 C 235.136719 248.460938 234.097656 250.136719 232.277344 250.859375 C 231.101562 251.332031 229.757812 251.210938 228.773438 250.449219 C 227.296875 249.253906 227.503906 247.339844 227.734375 245.625 C 228.09375 243.15625 229.003906 240.082031 231.710938 240.097656 C 232.65625 240.101562 233.546875 240.519531 234.253906 241.191406 C 235.558594 242.445312 236.097656 243.277344 236.070312 245.425781 C 236.046875 245.847656 235.953125 246.285156 235.800781 246.707031 Z M 235.800781 246.707031 " fill-opacity="1" fill-rule="nonzero"/></g></g></g><g clip-path="url(#a30b0f9464)"><g clip-path="url(#6542a57314)"><g clip-path="url(#c1c0cfeaed)"><path fill="#faf3f0" d="M 247.339844 282.667969 C 246.675781 284.421875 245.636719 286.097656 243.816406 286.820312 C 242.640625 287.292969 241.296875 287.171875 240.3125 286.410156 C 238.835938 285.214844 239.042969 283.300781 239.273438 281.585938 C 239.632812 279.117188 240.542969 276.042969 243.25 276.058594 C 244.195312 276.0625 245.085938 276.480469 245.792969 277.152344 C 247.09375 278.40625 247.636719 279.238281 247.609375 281.386719 C 247.585938 281.808594 247.492188 282.246094 247.339844 282.667969 Z M 247.339844 282.667969 " fill-opacity="1" fill-rule="nonzero"/></g></g></g><g clip-path="url(#90e54c1b8c)"><g clip-path="url(#1af45ff7e7)"><g clip-path="url(#9767b69477)"><path fill="#faf3f0" d="M 274.339844 174.703125 C 273.675781 176.457031 272.636719 178.128906 270.820312 178.855469 C 269.640625 179.324219 268.296875 179.203125 267.316406 178.441406 C 265.835938 177.25 266.046875 175.335938 266.277344 173.621094 C 266.632812 171.148438 267.542969 168.078125 270.25 168.09375 C 271.195312 168.097656 272.085938 168.515625 272.792969 169.183594 C 274.097656 170.441406 274.640625 171.273438 274.609375 173.421875 C 274.554688 173.832031 274.496094 174.277344 274.339844 174.703125 Z M 274.339844 174.703125 " fill-opacity="1" fill-rule="nonzero"/></g></g></g><g clip-path="url(#97f948b7df)"><g clip-path="url(#35ad32e611)"><g clip-path="url(#9e6d5aa975)"><path fill="#faf3f0" d="M 257.46875 142.804688 C 256.808594 144.558594 255.769531 146.234375 253.949219 146.960938 C 252.773438 147.429688 251.429688 147.308594 250.445312 146.546875 C 248.96875 145.351562 249.175781 143.4375 249.40625 141.722656 C 249.765625 139.253906 250.675781 136.179688 253.382812 136.199219 C 254.328125 136.203125 255.21875 136.617188 255.925781 137.289062 C 257.226562 138.542969 257.769531 139.375 257.742188 141.523438 C 257.6875 141.9375 257.625 142.382812 257.46875 142.804688 Z M 257.46875 142.804688 " fill-opacity="1" fill-rule="nonzero"/></g></g></g><g clip-path="url(#37e80873ab)"><g clip-path="url(#9e0d21fe7a)"><g clip-path="url(#a233468232)"><path fill="#faf3f0" d="M 221.867188 132.546875 C 221.203125 134.300781 220.164062 135.976562 218.347656 136.703125 C 217.167969 137.171875 215.824219 137.050781 214.84375 136.289062 C 213.363281 135.09375 213.574219 133.179688 213.804688 131.464844 C 214.160156 128.996094 215.070312 125.921875 217.777344 125.941406 C 218.722656 125.945312 219.613281 126.359375 220.320312 127.03125 C 221.625 128.285156 222.167969 129.117188 222.136719 131.265625 C 222.082031 131.679688 222.023438 132.125 221.867188 132.546875 Z M 221.867188 132.546875 " fill-opacity="1" fill-rule="nonzero"/></g></g></g><g clip-path="url(#1bf3b94a57)"><g clip-path="url(#dd5618040b)"><g clip-path="url(#0e6b6d6f4f)"><path fill="#faf3f0" d="M 235.75 265.5 C 235.085938 267.253906 234.046875 268.925781 232.230469 269.652344 C 231.050781 270.125 229.707031 270.003906 228.726562 269.242188 C 227.246094 268.046875 227.457031 266.132812 227.6875 264.417969 C 228.046875 261.949219 228.953125 258.875 231.660156 258.890625 C 232.605469 258.894531 233.496094 259.3125 234.203125 259.984375 C 235.507812 261.238281 236.050781 262.070312 236.019531 264.21875 C 235.996094 264.636719 235.90625 265.074219 235.75 265.5 Z M 235.75 265.5 " fill-opacity="1" fill-rule="nonzero"/></g></g></g><g clip-path="url(#47a06e6738)"><g clip-path="url(#5ce34b573a)"><g clip-path="url(#61c8b63233)"><path fill="#faf3f0" d="M 219.820312 286.066406 C 219.15625 287.820312 218.117188 289.492188 216.300781 290.21875 C 215.121094 290.6875 213.777344 290.566406 212.796875 289.804688 C 211.316406 288.613281 211.527344 286.699219 211.757812 284.984375 C 212.117188 282.511719 213.023438 279.441406 215.730469 279.457031 C 216.675781 279.460938 217.566406 279.878906 218.273438 280.550781 C 219.578125 281.804688 220.121094 282.636719 220.089844 284.785156 C 220.066406 285.203125 219.976562 285.640625 219.820312 286.066406 Z M 219.820312 286.066406 " fill-opacity="1" fill-rule="nonzero"/></g></g></g><g clip-path="url(#2b32d836d2)"><g clip-path="url(#4842dd5b17)"><g clip-path="url(#6e2abc450e)"><path fill="#faf3f0" d="M 186.828125 116.371094 C 186.164062 118.125 185.125 119.796875 183.304688 120.523438 C 182.128906 120.996094 180.785156 120.875 179.800781 120.109375 C 178.324219 118.917969 178.53125 117.003906 178.765625 115.289062 C 179.121094 112.820312 180.03125 109.746094 182.738281 109.761719 C 183.683594 109.765625 184.574219 110.183594 185.28125 110.855469 C 186.585938 112.109375 187.125 112.941406 187.097656 115.089844 C 187.074219 115.507812 187.007812 115.984375 186.828125 116.371094 Z M 186.828125 116.371094 " fill-opacity="1" fill-rule="nonzero"/></g></g></g><g clip-path="url(#61095438ce)"><g clip-path="url(#4f68ffe164)"><g clip-path="url(#f2439ba62d)"><path fill="#faf3f0" d="M 136.035156 125.953125 C 135.371094 127.707031 134.332031 129.382812 132.511719 130.105469 C 131.335938 130.578125 129.992188 130.457031 129.007812 129.695312 C 127.53125 128.5 127.738281 126.585938 127.972656 124.871094 C 128.328125 122.402344 129.238281 119.328125 131.945312 119.34375 C 132.890625 119.347656 133.78125 119.765625 134.488281 120.4375 C 135.792969 121.691406 136.332031 122.523438 136.304688 124.671875 C 136.25 125.085938 136.1875 125.53125 136.035156 125.953125 Z M 136.035156 125.953125 " fill-opacity="1" fill-rule="nonzero"/></g></g></g><g clip-path="url(#f20a9ee20a)"><g clip-path="url(#2e18741ce1)"><g clip-path="url(#f718a9b112)"><path fill="#faf3f0" d="M 169.832031 115.851562 C 169.167969 117.605469 168.128906 119.277344 166.308594 120.003906 C 165.132812 120.476562 163.789062 120.355469 162.808594 119.59375 C 161.328125 118.398438 161.535156 116.484375 161.769531 114.769531 C 162.125 112.300781 163.035156 109.226562 165.742188 109.242188 C 166.6875 109.246094 167.578125 109.664062 168.285156 110.335938 C 169.589844 111.589844 170.128906 112.421875 170.101562 114.570312 C 170.078125 114.988281 169.984375 115.425781 169.832031 115.851562 Z M 169.832031 115.851562 " fill-opacity="1" fill-rule="nonzero"/></g></g></g><g clip-path="url(#387eed2e48)"><g clip-path="url(#6bcaee137e)"><g clip-path="url(#e100a0df8b)"><path fill="#faf3f0" d="M 184.507812 156.589844 C 184.5 158.480469 185.117188 160.503906 187.207031 162.054688 C 188.558594 163.058594 190.402344 163.609375 192.109375 163.414062 C 194.660156 163.074219 195.371094 161.265625 195.882812 159.609375 C 196.617188 157.21875 196.902344 154.015625 193.292969 152.699219 C 192.019531 152.234375 190.597656 152.160156 189.367188 152.425781 C 187.015625 152.90625 185.871094 153.382812 184.839844 155.320312 C 184.628906 155.699219 184.507812 156.132812 184.507812 156.589844 Z M 184.507812 156.589844 " fill-opacity="1" fill-rule="nonzero"/></g></g></g><g clip-path="url(#ac1d069ca3)"><g clip-path="url(#f473d79b60)"><g clip-path="url(#eddd3fbbba)"><path fill="#faf3f0" d="M 135.203125 272.480469 C 134.933594 272.816406 134.636719 273.144531 134.277344 273.460938 C 132.910156 274.671875 131.15625 275.871094 129.269531 275.992188 C 127.484375 276.105469 125.71875 275.34375 124.402344 274.152344 C 123.335938 273.175781 122.566406 271.871094 122.207031 270.488281 C 121.007812 265.957031 125.332031 260.929688 129.996094 261.425781 C 133.949219 261.867188 136.828125 266.164062 136.28125 270 C 136.078125 270.96875 135.742188 271.777344 135.203125 272.480469 Z M 135.203125 272.480469 " fill-opacity="1" fill-rule="nonzero"/></g></g></g><g clip-path="url(#d2e51c5503)"><g clip-path="url(#a2a485f11f)"><g clip-path="url(#af9ea30543)"><path fill="#faf3f0" d="M 174.527344 269.585938 C 174.472656 270.324219 174.355469 271.015625 174.132812 271.621094 C 173.234375 274.011719 171.035156 275.929688 168.519531 276.410156 C 165.5625 276.960938 162.339844 275.53125 160.792969 272.953125 C 159.726562 271.195312 159.449219 269.109375 159.488281 267.0625 C 159.523438 265.046875 160.03125 262.804688 161.726562 261.726562 C 162.628906 261.164062 163.765625 261.042969 164.820312 261.136719 C 168.25 261.4375 172.53125 263.125 174.078125 266.453125 C 174.445312 267.347656 174.597656 268.488281 174.527344 269.585938 Z M 174.527344 269.585938 " fill-opacity="1" fill-rule="nonzero"/></g></g></g><g clip-path="url(#7078e0f20b)"><g clip-path="url(#5ed87ebd17)"><g clip-path="url(#d060e60796)"><path fill="#faf3f0" d="M 157.871094 298.09375 C 157.550781 298.515625 157.183594 298.863281 156.753906 299.195312 C 153.699219 301.617188 151.199219 303.246094 147.617188 301.347656 C 143.832031 299.339844 141.664062 294.441406 143.167969 290.417969 C 144.734375 286.242188 150.0625 284.039062 154.140625 285.75 C 157.261719 287.058594 159.242188 290.351562 159.351562 293.703125 C 159.433594 295.320312 158.878906 296.867188 157.871094 298.09375 Z M 157.871094 298.09375 " fill-opacity="1" fill-rule="nonzero"/></g></g></g><g clip-path="url(#c58706bb1a)"><g clip-path="url(#55db0d347a)"><g clip-path="url(#1365d299e3)"><path fill="#faf3f0" d="M 202.875 285.621094 C 202.300781 287.558594 200.875 289.214844 199.214844 290.433594 C 197.476562 291.699219 195.40625 292.535156 193.277344 292.738281 C 192.976562 292.769531 192.679688 292.773438 192.386719 292.777344 C 190.457031 292.792969 188.382812 292.257812 187.082031 290.839844 C 185.597656 289.222656 185.351562 286.820312 185.675781 284.667969 C 186.136719 281.402344 187.894531 278.183594 190.730469 276.496094 C 192.476562 275.496094 194.601562 275.160156 196.566406 275.605469 C 197.964844 275.933594 199.128906 276.769531 200.207031 277.683594 C 201.203125 278.542969 202.207031 279.507812 202.6875 280.785156 C 203.003906 281.601562 203.074219 282.5 203.15625 283.363281 C 203.175781 284.183594 203.085938 284.917969 202.875 285.621094 Z M 202.875 285.621094 " fill-opacity="1" fill-rule="nonzero"/></g></g></g><g clip-path="url(#5f546fd383)"><g clip-path="url(#0922af8620)"><g clip-path="url(#6890cc83ee)"><path fill="#faf3f0" d="M 264.605469 263.496094 C 263.273438 267.492188 258.636719 269.1875 254.515625 270.015625 C 250.527344 270.808594 245.65625 270.988281 243.167969 267.785156 C 241.726562 265.945312 241.496094 263.480469 241.402344 261.144531 C 241.253906 257.523438 241.523438 252.84375 244.648438 250.402344 C 249.066406 246.960938 255.90625 249.648438 259.550781 252.960938 C 260.96875 254.273438 262.074219 255.84375 263.058594 257.523438 C 263.933594 259.109375 265.234375 261.605469 264.605469 263.496094 Z M 264.605469 263.496094 " fill-opacity="1" fill-rule="nonzero"/></g></g></g><g clip-path="url(#a4e9ade3d8)"><g clip-path="url(#58bcd9b098)"><g clip-path="url(#f14c3c66d8)"><path fill="#faf3f0" d="M 250.734375 233.636719 C 250.730469 233.960938 250.734375 234.257812 250.800781 234.5625 C 251.300781 237.148438 248.480469 239.363281 245.867188 239.988281 C 242.632812 240.773438 238.863281 240.238281 236.59375 237.832031 C 234.03125 235.136719 234.164062 230.335938 236.828125 227.761719 C 239.523438 225.199219 244.507812 224.160156 247.113281 226.832031 C 249.714844 229.503906 249.769531 230.003906 250.746094 233.28125 Z M 250.734375 233.636719 " fill-opacity="1" fill-rule="nonzero"/></g></g></g><g clip-path="url(#db1b18b318)"><g clip-path="url(#4c987358c0)"><g clip-path="url(#ae935609cc)"><path fill="#faf3f0" d="M 223.597656 214.980469 C 226.8125 218.761719 224.832031 224.742188 219.941406 225.636719 C 219.535156 225.710938 219.101562 225.75 218.683594 225.726562 C 214.742188 225.679688 211.273438 221.550781 212.210938 217.734375 C 213.058594 214.324219 217.039062 212.488281 220.464844 213.113281 C 221.722656 213.34375 222.816406 214.03125 223.597656 214.980469 Z M 223.597656 214.980469 " fill-opacity="1" fill-rule="nonzero"/></g></g></g><g clip-path="url(#02ccf43d21)"><g clip-path="url(#1e837ce474)"><g clip-path="url(#d0571d05e4)"><path fill="#faf3f0" d="M 294.492188 219.335938 C 293.890625 222.34375 291.539062 224.980469 288.507812 225.582031 C 285.511719 226.15625 282.136719 224.367188 281.214844 221.464844 C 280.292969 218.558594 282.324219 214.972656 285.347656 214.566406 C 288.378906 214.128906 295.699219 214.859375 294.824219 217.773438 Z M 294.492188 219.335938 " fill-opacity="1" fill-rule="nonzero"/></g></g></g><g clip-path="url(#bb24b2a999)"><g clip-path="url(#79e4ab453e)"><g clip-path="url(#b2e357913b)"><path fill="#faf3f0" d="M 247.503906 211.214844 C 247.1875 212.714844 246.4375 214.089844 245.3125 215.09375 C 243.0625 217.097656 239.863281 218.023438 236.964844 217.214844 C 233.113281 216.140625 230.351562 211.902344 231.082031 207.976562 C 231.8125 204.050781 236.097656 201.070312 240.023438 201.960938 C 243.945312 202.855469 249.144531 207.152344 247.605469 210.875 Z M 247.503906 211.214844 " fill-opacity="1" fill-rule="nonzero"/></g></g></g><g clip-path="url(#6e46698507)"><g clip-path="url(#0cc3fed109)"><g clip-path="url(#660577e945)"><path fill="#faf3f0" d="M 280.472656 198.226562 C 280.910156 201.421875 278.125 204.554688 274.921875 204.890625 C 271.714844 205.226562 268.558594 203.023438 267.324219 200.054688 C 266.089844 197.085938 266.640625 193.542969 268.390625 190.8125 C 269.132812 189.632812 270.183594 188.515625 271.582031 188.222656 C 272.40625 188.035156 273.257812 188.183594 274.082031 188.457031 C 277.761719 189.722656 281.582031 192.976562 280.722656 196.582031 C 280.617188 197.082031 280.511719 197.582031 280.5 198.101562 Z M 280.472656 198.226562 " fill-opacity="1" fill-rule="nonzero"/></g></g></g><g clip-path="url(#2aaf64a37e)"><g clip-path="url(#5ac7517cc3)"><g clip-path="url(#9f0a4b0b0c)"><path fill="#faf3f0" d="M 281.339844 228.441406 C 280.472656 231.328125 277.871094 233.75 274.957031 234.40625 C 273.828125 234.660156 272.671875 234.710938 271.527344 234.566406 C 268.257812 234.136719 265.285156 231.972656 263.851562 229.027344 C 262.347656 225.9375 262.636719 221.949219 264.855469 219.316406 C 267.078125 216.683594 271.246094 215.800781 274.210938 217.535156 C 277.085938 219.21875 280.757812 221.464844 281.523438 224.957031 C 281.792969 226.15625 281.710938 227.3125 281.339844 228.441406 Z M 281.339844 228.441406 " fill-opacity="1" fill-rule="nonzero"/></g></g></g><g clip-path="url(#d9b4b6c551)"><g clip-path="url(#28632b5a5f)"><g clip-path="url(#fe126040f1)"><path fill="#faf3f0" d="M 290.046875 250.453125 C 288.628906 255.148438 282.660156 257.449219 278.316406 255.292969 C 274.660156 253.441406 272.402344 248.984375 273.496094 245.035156 C 274.558594 241.082031 279.09375 238.316406 283.023438 239.503906 C 287.167969 240.738281 291.085938 245.058594 290.234375 249.710938 C 290.191406 249.929688 290.097656 250.203125 290.046875 250.453125 Z M 290.046875 250.453125 " fill-opacity="1" fill-rule="nonzero"/></g></g></g><g clip-path="url(#6b050500b6)"><g clip-path="url(#5ba4e8293a)"><g clip-path="url(#756617f6cd)"><path fill="#faf3f0" d="M 151.007812 192.183594 C 148.707031 194.277344 144.648438 194.789062 141.53125 194.554688 C 138.421875 194.292969 135.410156 192.316406 134.292969 189.40625 C 133.179688 186.492188 134.320312 182.785156 137.054688 181.273438 C 139.378906 180 142.234375 180.40625 144.789062 181.140625 C 147.191406 181.8125 149.625 182.816406 151.246094 184.726562 C 152.867188 186.632812 153.335938 189.671875 151.753906 191.589844 Z M 151.007812 192.183594 " fill-opacity="1" fill-rule="nonzero"/></g></g></g><g clip-path="url(#ec0767c47a)"><g clip-path="url(#003eb67270)"><g clip-path="url(#67d52e081b)"><path fill="#faf3f0" d="M 196.507812 263.515625 C 194.203125 265.609375 190.144531 266.125 187.027344 265.890625 C 183.910156 265.65625 180.90625 263.652344 179.792969 260.738281 C 178.675781 257.828125 179.816406 254.117188 182.550781 252.605469 C 184.878906 251.335938 187.730469 251.742188 190.285156 252.476562 C 192.6875 253.144531 195.121094 254.148438 196.742188 256.058594 C 198.363281 257.96875 198.832031 261.003906 197.25 262.921875 Z M 196.507812 263.515625 " fill-opacity="1" fill-rule="nonzero"/></g></g></g><g clip-path="url(#2fa3caafbf)"><g clip-path="url(#316a8433cd)"><g clip-path="url(#f3d51d25c0)"><path fill="#faf3f0" d="M 184.632812 306.613281 C 182.332031 308.707031 178.273438 309.222656 175.15625 308.988281 C 172.039062 308.753906 169.035156 306.75 167.917969 303.835938 C 166.804688 300.925781 167.945312 297.214844 170.679688 295.703125 C 173.003906 294.433594 175.859375 294.835938 178.410156 295.574219 C 180.816406 296.242188 183.25 297.246094 184.871094 299.15625 C 186.492188 301.066406 186.960938 304.101562 185.378906 306.019531 Z M 184.632812 306.613281 " fill-opacity="1" fill-rule="nonzero"/></g></g></g><g clip-path="url(#bde063e05a)"><g clip-path="url(#50966c00de)"><g clip-path="url(#00c3c7f3c2)"><path fill="#faf3f0" d="M 222.3125 174.199219 C 220.011719 176.292969 215.953125 176.804688 212.835938 176.570312 C 209.722656 176.308594 206.714844 174.332031 205.597656 171.421875 C 204.484375 168.507812 205.625 164.800781 208.359375 163.289062 C 210.683594 162.015625 213.535156 162.421875 216.089844 163.15625 C 218.496094 163.828125 220.929688 164.832031 222.550781 166.742188 C 224.171875 168.648438 224.640625 171.6875 223.058594 173.605469 Z M 222.3125 174.199219 " fill-opacity="1" fill-rule="nonzero"/></g></g></g><g clip-path="url(#9056e26203)"><g clip-path="url(#6c40fe0f32)"><g clip-path="url(#6e0a38dd1b)"><path fill="#faf3f0" d="M 262.441406 166.574219 C 260.140625 168.667969 256.082031 169.183594 252.964844 168.949219 C 249.855469 168.683594 246.84375 166.710938 245.726562 163.796875 C 244.613281 160.886719 245.753906 157.175781 248.488281 155.664062 C 250.8125 154.394531 253.664062 154.800781 256.21875 155.535156 C 258.625 156.207031 261.058594 157.207031 262.679688 159.117188 C 264.300781 161.027344 264.769531 164.0625 263.1875 165.984375 Z M 262.441406 166.574219 " fill-opacity="1" fill-rule="nonzero"/></g></g></g></svg>